<?xml version="1.0" encoding="utf-8"?>
<!-- Generator: Adobe Illustrator 23.1.1, SVG Export Plug-In . SVG Version: 6.00 Build 0)  -->
<svg version="1.1" id="Layer_1" xmlns="http://www.w3.org/2000/svg" xmlns:xlink="http://www.w3.org/1999/xlink" x="0px" y="0px"
	 viewBox="0 0 122.6 114.7" style="enable-background:new 0 0 122.6 114.7;" xml:space="preserve">
<style type="text/css">
	.st0{fill:#6F54BF;}
	.st1{fill:#45C1FF;}
	.st2{fill:#FFE492;}
	.st3{fill:#FFC9ED;}
	.st4{fill:#C1FF8F;}
	.st5{fill:#664DB0;}
	.st6{fill:#9E7DFF;}
	.st7{fill:#9070EB;}
</style>
<g>
	<g>
		<path class="st0" d="M61.8,88.8c-0.5,0.2-1,0.3-1.5,0.3c-4.5-0.1-11.1-7.4-15.8-17.9c-4.8-10.5-5.8-20.6-2.8-23.8
			c0.4-0.3,0.7-0.7,1.1-0.8c4.3-1.9,12.1,5.9,17.4,17.6C65.4,75.8,66.1,86.9,61.8,88.8z"/>
	</g>
	<g>
		<path class="st1" d="M58.8,37.5c0-0.1,0-0.2,0-0.3c0.2-1.1,0.9-2.2,2-2.8c1.1-0.6,2.2-0.7,3.4-0.3l2.1,0.8c0.4,0.2,0.8,0.1,1.2,0
			s0.7-0.5,0.8-0.9c0.2-0.6,0.1-1.2-0.4-1.7L61,24.9c-0.9-0.9-1.2-2.2-0.9-3.4s1.1-2.3,2.3-2.8c1.4-0.6,3.1-0.5,4.3,0.5l5.7,4.7
			c0.7,0.5,1.5,0.6,2.1,0.3c1.1-0.5,1.5-1.7,1.1-2.8l-1.4-2.9c-0.5-1.1-0.5-2.4-0.1-3.4c0.4-1.1,1.2-2,2.4-2.5
			c1.1-0.5,2.4-0.5,3.4-0.1c1.1,0.4,2,1.2,2.5,2.4l0.6,1.3c0.2,0.5,0,1.1-0.5,1.3c-0.5,0.2-1.1,0-1.3-0.5l-0.6-1.3
			c-0.3-0.6-0.8-1-1.4-1.3s-1.3-0.2-1.9,0.1c-0.6,0.3-1,0.8-1.3,1.4c-0.2,0.6-0.2,1.3,0.1,1.9l1.4,3.1c0.9,2,0,4.5-2,5.4
			c-1.4,0.6-3.1,0.4-4.3-0.6L65.4,21c-0.5-0.5-1.4-0.6-2.1-0.3c-0.7,0.3-1,0.8-1.2,1.4c-0.1,0.6,0,1.2,0.5,1.7l6.8,7.5
			c0.9,1,1.2,2.5,0.7,3.7c-0.3,0.9-1.1,1.6-1.9,2s-1.9,0.5-2.8,0.1l-2.1-0.8c-0.5-0.3-1.1-0.2-1.7,0.2c-0.5,0.2-0.8,0.8-1,1.4
			c-0.1,0.5-0.6,1-1.1,0.8C59.1,38.4,58.8,38,58.8,37.5z"/>
	</g>
	<g>
		<path class="st2" d="M81.9,71.5c0-0.2,0.1-0.4,0.1-0.6c0.3-0.4,1-0.6,1.4-0.3c0.5,0.4,1.1,0.4,1.6,0.3c0.6-0.2,1-0.6,1.2-1.1
			l0.8-2.1c0.3-0.9,1.1-1.6,1.9-2c0.9-0.4,1.9-0.5,2.8-0.1c1.2,0.5,2.2,1.6,2.3,3l1,10c0.1,0.6,0.4,1.2,0.9,1.5s1.1,0.4,1.7,0.1
			c0.8-0.4,1.2-1,1.3-1.7l0.3-7.5c0.1-1.5,1-2.9,2.4-3.5c1-0.5,2.1-0.5,3.1-0.1c1,0.4,1.8,1.1,2.3,2.1l1.4,3.1
			c0.5,1.3,2.1,1.8,3.3,1.3c1.3-0.5,1.8-2.1,1.3-3.3l-0.6-1.3c-0.2-0.5,0-1.1,0.5-1.3c0.5-0.2,1.1,0,1.3,0.5l0.6,1.3
			c1,2.2-0.1,4.9-2.3,5.9c-2.2,1-4.9-0.1-5.9-2.3l-1.4-3.1c-0.2-0.5-0.7-0.9-1.2-1.1c-0.5-0.2-1.1-0.2-1.6,0c-0.8,0.4-1.2,1-1.2,1.8
			l-0.3,7.5c-0.1,1.5-0.9,2.9-2.4,3.4c-1.3,0.5-2.6,0.4-3.6-0.2c-1.1-0.6-1.8-1.7-2-3l-1-10c-0.1-0.6-0.5-1.2-1-1.3
			c-0.4-0.2-0.8-0.1-1.2,0c-0.4,0.1-0.7,0.5-0.8,0.9l-0.8,2.1c-0.4,1.1-1.3,1.9-2.4,2.3c-1.2,0.4-2.4,0.2-3.3-0.4
			C82.1,72.1,81.9,71.8,81.9,71.5z"/>
	</g>
	<g>
		<path class="st3" d="M89.4,32.2c-0.1-0.6,0-1.2,0.2-1.8c0.4-1,1.1-1.8,2.1-2.2c2-0.9,4.4,0,5.3,2c0.4,1,0.5,2.1,0.1,3.1
			c-0.4,1-1.1,1.8-2.1,2.2l0,0c-1,0.4-2.1,0.5-3.1,0.1c-1-0.4-1.8-1.1-2.2-2.1C89.6,33,89.4,32.6,89.4,32.2z M95.4,31.6
			c0-0.2,0-0.4-0.2-0.6c-0.5-1-1.6-1.5-2.6-1c-0.5,0.2-0.9,0.6-1,1.1c-0.2,0.5-0.2,1,0,1.5c0.2,0.5,0.6,0.9,1.1,1
			c0.5,0.2,1,0.2,1.5,0l0,0c0.5-0.2,0.9-0.6,1-1.1C95.3,32.2,95.4,31.9,95.4,31.6z"/>
	</g>
	<g>
		<path class="st1" d="M80.6,90.2c-0.1-0.6,0-1.2,0.2-1.8c0.4-1,1.1-1.8,2.1-2.2c1-0.4,2.1-0.5,3.1-0.1c1,0.4,1.8,1.1,2.2,2.1
			s0.5,2.1,0.1,3.1c-0.4,1-1.1,1.8-2.1,2.2l0,0c-2,0.9-4.4,0-5.3-2C80.8,91.1,80.6,90.6,80.6,90.2z M86.6,89.6c0-0.2,0-0.4-0.2-0.6
			c-0.2-0.5-0.6-0.9-1.1-1c-0.5-0.2-1-0.2-1.5,0c-0.5,0.2-0.9,0.6-1,1.1s-0.2,1,0,1.5c0.5,1,1.6,1.5,2.6,1l0,0
			c0.5-0.2,0.9-0.6,1-1.1C86.5,90.3,86.6,89.9,86.6,89.6z"/>
	</g>
	<g>
		<ellipse class="st2" cx="113.2" cy="23.5" rx="1.5" ry="1.5"/>
	</g>
	<g>
		<ellipse class="st4" cx="114.1" cy="55.5" rx="1.5" ry="1.5"/>
	</g>
	<g>
		<ellipse class="st4" cx="55.6" cy="8.6" rx="1.5" ry="1.5"/>
	</g>
	<g>
		<g>
			<path class="st5" d="M54,53.4c-4-5.3-8.3-8.1-11.1-6.8c-0.4,0.2-0.9,0.5-1.1,0.8c-2.6,2.7-2.2,10.1,0.7,18.5L54,53.4z"/>
		</g>
	</g>
	<g>
		<ellipse class="st3" cx="52.6" cy="30" rx="1.5" ry="1.5"/>
	</g>
	<g>
		<ellipse class="st2" cx="51.5" cy="51.2" rx="1.5" ry="1.5"/>
	</g>
	<g>
		<ellipse class="st3" cx="60.2" cy="81.5" rx="1.5" ry="1.5"/>
	</g>
	<g>
		<ellipse class="st3" cx="120.2" cy="78.1" rx="1.5" ry="1.5"/>
	</g>
	<g>
		<ellipse class="st1" cx="98.7" cy="51.9" rx="1.5" ry="1.5"/>
	</g>
	<g>
		<ellipse class="st2" cx="99.5" cy="94" rx="1.5" ry="1.5"/>
	</g>
	<g>
		<ellipse class="st4" cx="112.3" cy="101.9" rx="1.5" ry="1.5"/>
	</g>
	<g>
		<path class="st2" d="M38.8,60.6c0-0.3,0.1-0.5,0.2-0.7c0.4-0.4,0.8-0.7,1.3-0.9c1-0.4,2.1-0.5,3.1-0.1c1,0.4,1.8,1.1,2.2,2.1
			s0.5,2.1,0.1,3.1c-0.4,1-1.1,1.8-2.1,2.2c-0.9,0.4-1.8,0.5-2.6,0.2c-0.5-0.2-0.9-0.7-0.7-1.2c0.2-0.5,0.7-0.9,1.2-0.7
			c0.4,0.2,0.9,0.1,1.3-0.1c0.5-0.2,0.9-0.6,1-1.1c0.2-0.5,0.2-1,0-1.5c-0.2-0.5-0.6-0.9-1.1-1c-0.5-0.2-1-0.2-1.5,0
			c-0.3,0.1-0.5,0.2-0.7,0.5c-0.4,0.4-1,0.4-1.4,0C38.9,61,38.8,60.8,38.8,60.6z"/>
	</g>
	<g>
		<path class="st4" d="M53.5,70.7c0-0.4,0.2-0.8,0.6-1c0.5-0.2,1.1,0,1.3,0.5l0.6,1.3c0.3,0.6,0.8,1,1.4,1.3
			c0.6,0.2,1.3,0.2,1.9-0.1c0.6-0.3,1-0.8,1.3-1.4c0.2-0.6,0.2-1.3-0.1-1.9l-1.4-3c-0.9-2,0-4.5,2-5.4c1.4-0.6,3.1-0.4,4.3,0.6
			l5.7,4.7c0.5,0.5,1.4,0.6,2.1,0.3c0.7-0.3,1-0.8,1.2-1.4s0-1.2-0.5-1.7l-6.8-7.4c-0.9-1-1.2-2.5-0.7-3.7c0.3-0.9,1.1-1.6,1.9-2
			c0.9-0.4,1.9-0.5,2.8-0.1l2.1,0.8c0.5,0.3,1.1,0.2,1.7-0.2c0.6-0.4,0.8-0.8,1-1.4c0.1-0.5,0.6-1,1.1-0.8c0.5,0.1,0.9,0.6,0.8,1.1
			c-0.2,1.1-0.9,2.2-2,2.8c-1.1,0.6-2.2,0.7-3.4,0.3l-2.1-0.8c-0.4-0.2-0.8-0.1-1.2,0c-0.4,0.1-0.7,0.5-0.8,0.9
			c-0.2,0.6-0.1,1.2,0.4,1.7l6.8,7.4c0.9,0.9,1.2,2.2,0.9,3.4c-0.3,1.2-1.1,2.3-2.3,2.8C73,69.2,71.4,69,70.2,68l-5.7-4.7
			c-0.7-0.5-1.5-0.6-2.1-0.3c-1.1,0.5-1.5,1.7-1.1,2.8l1.3,2.9c0.5,1.1,0.5,2.4,0.1,3.4c-0.4,1-1.2,2-2.4,2.5
			c-1.1,0.5-2.4,0.5-3.4,0.1c-1.1-0.4-2-1.2-2.5-2.4L53.7,71C53.6,70.9,53.5,70.8,53.5,70.7z"/>
	</g>
	<g>
		<path class="st6" d="M60.3,89.1l-50.2,0.5c-2.7,0-4.2-3.2-2.4-5.2l34-37l0,0c-3,3.3-2,13.2,2.7,23.8C49.1,81.6,55.8,89,60.3,89.1
			L60.3,89.1L60.3,89.1z"/>
	</g>
	<g>
		<g>
			<path class="st7" d="M42.2,65.4c-2.7-8.2-2.9-15.4-0.4-18l0,0l-33.9,37c-1.8,2-0.4,5.3,2.4,5.2l10-0.1L42.2,65.4z"/>
		</g>
	</g>
</g>
</svg>
